<?xml version="1.0" encoding="UTF-8" standalone="no"?>
<svg
   xmlns:dc="http://purl.org/dc/elements/1.1/"
   xmlns:cc="http://creativecommons.org/ns#"
   xmlns:rdf="http://www.w3.org/1999/02/22-rdf-syntax-ns#"
   xmlns:svg="http://www.w3.org/2000/svg"
   xmlns="http://www.w3.org/2000/svg"
   version="1.1"
   id="svg2"
   viewBox="0 0 20 20"
   height="20"
   width="20">
  <defs
     id="defs4" />
  <metadata
     id="metadata7">
    <rdf:RDF>
      <cc:Work
         rdf:about="">
        <dc:format>image/svg+xml</dc:format>
        <dc:type
           rdf:resource="http://purl.org/dc/dcmitype/StillImage" />
        <dc:title></dc:title>
      </cc:Work>
    </rdf:RDF>
  </metadata>
  <g
     transform="translate(0,-1032.3622)"
     id="layer1">
    <path
       id="path4201"
       d="m 18.455983,1051.7901 c -0.09303,-0.053 -1.386909,-1.3086 -2.875328,-2.7912 l -2.706214,-2.6958 -0.422391,0.3023 c -0.623793,0.4475 -1.461676,0.8501 -2.30054,1.1053 -0.6579677,0.2004 -0.888439,0.2251 -2.0114664,0.232 -1.0525263,0 -1.3834599,-0.035 -1.9448084,-0.1793 -1.4193591,-0.3866 -2.5136279,-1.0301 -3.551388,-2.0879 -0.8067369,-0.8224 -1.3754614,-1.7452 -1.72707459,-2.8028 -1.21086501,-3.6417 0.40149099,-7.5271 3.82227609,-9.2109 4.2685999,-2.1013 9.3204203,0.1864 10.6463863,4.818 0.166014,0.5801 0.19277,0.8631 0.187811,1.9871 -0.0053,1.1696 -0.03023,1.3905 -0.232108,2.0535 -0.255559,0.8392 -0.658268,1.6773 -1.105678,2.3007 l -0.303092,0.4222 2.696851,2.7065 c 1.483268,1.4882 2.741431,2.794 2.795916,2.9015 0.120802,0.2391 0.0462,0.6276 -0.155044,0.8097 -0.20001,0.1793 -0.606406,0.2462 -0.814087,0.1266 z m -8.7093598,-5.4912 c 2.0767688,-0.6378 3.5467588,-2.1175 4.1965418,-4.2238 0.250812,-0.8133 0.274438,-2.2871 0.05011,-3.1287 -0.795309,-2.9838 -3.618482,-4.9225 -6.6325762,-4.5547 -3.3366989,0.4075 -5.7221988,3.4025 -5.3460703,6.7129 0.3071706,2.7033 2.248755,4.798 4.941626,5.331 0.7947343,0.1582 2.0297664,0.099 2.7903768,-0.1371 z"
       style="fill:#888d92" />
  </g>
</svg>
